<svg width="625" height="118" viewBox="0 0 625 118" fill="none" xmlns="http://www.w3.org/2000/svg">
<path d="M138.959 28.0347C129.823 29.3803 122.315 33.7007 117.782 40.2166C114.737 44.7494 113.32 49.7071 113.32 55.8689C113.32 70.7421 122.386 81.0117 138.251 84.3405C154.257 87.6693 170.972 78.3204 174.655 64.0137C177.063 54.7357 174.655 44.3244 168.564 37.6669C161.623 30.0886 150.362 26.4057 138.959 28.0347ZM153.407 32.0717C157.373 34.1256 161.835 39.2958 163.748 44.1828C165.872 49.5655 166.014 62.5264 164.102 68.1924C162.19 73.5751 157.869 78.7453 153.478 80.7993C149.441 82.6407 142.713 83.0657 137.967 81.7908C131.452 79.9494 125.573 72.3711 123.944 63.5888C122.882 57.9228 123.377 47.9365 125.006 43.4037C126.99 37.8085 132.301 32.5675 138.109 30.726C141.367 29.6636 150.22 30.4427 153.407 32.0717Z" fill="white"/>
<path d="M0 29.2386C0 29.5927 0.920725 30.301 2.12475 30.7968C3.61207 31.4342 4.46197 32.4257 4.95775 34.2672C5.73682 37.1002 5.80765 76.0539 5.02857 78.9577C4.74527 80.0201 3.61207 81.1533 2.2664 81.7199C1.06237 82.2865 0 83.0656 0 83.4197C0 83.7738 7.79075 83.9155 18.2728 83.7738C37.6789 83.4905 39.662 83.2072 44.9739 79.5952C49.5775 76.4789 51.7022 68.8298 49.2942 64.1553C47.5944 60.8974 43.5574 57.8519 39.1662 56.5771C36.8998 55.9396 34.5626 55.2314 33.996 55.0897C33.4294 54.8773 34.9167 54.169 37.2539 53.3899C44.8322 51.0527 48.7276 44.9618 46.8153 38.5167C45.6821 34.6921 43.4865 32.4966 38.9537 30.6551C35.3417 29.2386 33.7127 29.097 17.5646 28.8137C6.5159 28.672 0 28.8137 0 29.2386ZM33.5002 32.4966C36.4749 34.4797 37.8205 37.596 37.8205 42.4829C37.8205 51.1944 34.4918 53.6732 22.1682 54.0274L14.165 54.3107V42.4829V30.6551L22.8765 30.9384C29.8881 31.1509 31.8712 31.4342 33.5002 32.4966ZM34.3501 58.0644C39.3787 60.5433 41.8576 68.334 39.3787 74.2125C38.1747 77.1871 34.7042 80.0909 31.3046 81.0825C28.0467 81.9324 16.998 82.0032 15.5815 81.0825C14.7316 80.5867 14.4483 78.1078 14.3066 68.2632L14.0942 56.1521L22.8056 56.4354C29.6048 56.6479 32.1545 57.002 34.3501 58.0644Z" fill="white"/>
<path d="M57.3691 29.0267C57.3691 29.2391 58.3607 29.8057 59.4939 30.2307C60.6979 30.5848 62.0436 31.6472 62.5394 32.4971C63.5309 34.2677 64.1683 70.6009 63.2476 76.8335C62.7518 80.3039 62.3977 80.8705 60.4146 81.7913C59.1398 82.3579 58.0774 83.0661 58.0774 83.3494C58.0774 83.7035 62.5394 83.916 67.9929 83.916C74.1547 83.916 77.9084 83.6327 77.9084 83.2078C77.9084 82.7828 77.4126 82.4995 76.846 82.4995C76.2086 82.4995 74.9337 81.7204 74.013 80.7289C72.3132 79.0999 72.2424 78.7458 72.2424 68.6886V58.419H77.1293C83.6452 58.419 84.6368 59.3397 91.3651 71.0967C99.2267 84.9076 98.2352 83.9868 106.238 83.7744L112.967 83.5619L110.488 82.2162C107.442 80.5872 107.513 80.6581 100.856 70.1051C97.881 65.4307 94.4814 60.6146 93.2774 59.3397C91.7193 57.64 91.3651 56.9317 92.1442 56.7192C92.7108 56.5776 94.3398 56.011 95.8271 55.586C98.8017 54.6653 103.122 50.7699 104.184 48.0078C105.034 45.5997 104.964 39.5088 104.043 37.6673C102.485 34.6218 99.5808 32.2138 95.6855 30.6556C92.0734 29.2391 90.1611 29.0975 74.5796 28.8142C65.0891 28.6725 57.3691 28.7434 57.3691 29.0267ZM90.4444 32.6387C93.4191 34.9051 94.8356 37.2424 95.3313 40.8544C95.9688 45.3164 95.1897 48.7868 92.9941 51.3365C90.0903 54.807 87.6114 55.7277 79.5374 56.1526L72.2424 56.5068V43.5458V30.5848L80.3873 30.9389C87.1156 31.2222 88.8863 31.5055 90.4444 32.6387Z" fill="white"/>
<path d="M177.062 29.2391C177.062 29.5224 178.125 30.2307 179.471 30.6556C182.304 31.718 181.737 30.514 193.919 61.9603C201.568 81.6496 202.489 83.5619 204.047 83.7744C205.676 83.9868 206.03 83.3494 209.43 74.213C211.483 68.8303 214.104 61.5353 215.379 58.0649C216.583 54.5237 217.858 51.4074 218.141 51.1241C218.424 50.8408 219.416 52.753 220.407 55.3736C229.756 80.9414 231.031 83.916 232.66 83.916C234.147 83.916 235.139 81.5788 243.638 58.7732C251.429 37.809 253.341 33.347 255.112 31.8597C256.245 30.8681 257.52 30.089 257.874 30.089C258.228 30.089 258.511 29.7349 258.511 29.3808C258.511 28.9558 255.678 28.6725 251.429 28.6725C244.559 28.6725 242.221 29.5224 246.471 30.4432C249.021 31.0098 249.871 33.347 248.737 36.7466C247.038 41.9876 236.555 70.7426 236.201 71.0259C235.989 71.2383 235.706 71.2383 235.564 71.0967C234.856 70.3176 221.682 34.1261 221.682 32.8512C221.682 31.8597 222.39 31.0806 223.807 30.5848C225.011 30.1599 225.932 29.5224 225.932 29.2391C225.932 28.9558 221.611 28.6725 216.37 28.6725C210.563 28.6725 206.809 28.9558 206.809 29.3808C206.809 29.7349 207.588 30.2307 208.509 30.514C209.5 30.7265 210.704 31.4347 211.271 32.0721C212.475 33.4886 216.724 44.3957 216.724 46.1663C216.724 47.7245 208.509 70.2468 207.517 71.38C206.88 72.0882 191.723 33.7011 192.219 32.4971C192.432 31.9305 193.423 31.1514 194.415 30.6556C195.406 30.2307 196.185 29.5933 196.185 29.2391C196.185 28.9558 191.865 28.6725 186.624 28.6725C181.383 28.6725 177.062 28.9558 177.062 29.2391Z" fill="white"/>
<path d="M266.303 29.31C266.303 29.6641 267.223 30.3015 268.357 30.7973C273.102 32.7804 273.031 32.143 273.031 56.5776C273.031 80.5164 272.889 81.2955 269.136 82.1454C264.815 83.0661 267.223 83.916 274.448 83.916C281.672 83.916 284.08 83.0661 279.759 82.1454C275.581 81.2247 275.439 80.5872 275.652 57.8524L275.864 37.1715L296.262 60.5438C312.622 79.2416 317.013 83.916 318.43 83.916H320.13V58.5607C320.13 30.7973 319.988 31.7888 324.238 30.514C327.779 29.3808 325.371 28.6725 318.005 28.6725C313.26 28.6725 310.214 28.9558 310.214 29.3808C310.214 29.7349 310.71 30.089 311.277 30.089C313.685 30.089 315.951 31.7888 316.659 34.2677C317.084 35.8259 317.297 43.7583 317.155 54.6653L316.943 72.4424L311.843 66.3514C309.01 62.9518 304.052 57.1442 300.865 53.3905C297.607 49.7076 291.516 42.5542 287.267 37.6673L279.618 28.6725H272.96C269.277 28.6725 266.303 28.9558 266.303 29.31Z" fill="white"/>
<path d="M493.099 0.186967C489.064 0.81309 482.977 2.86538 480.298 4.53504L479.15 5.23074L476.82 4.1872C470.698 1.43921 463.671 0.395675 453.445 0.743521C436.783 1.33486 418.521 5.71772 404.19 12.6051C381.127 23.7014 364.361 42.659 360.013 62.5558C359.109 66.6604 359.074 79.0785 359.944 82.2091C360.291 83.3222 360.465 84.3309 360.396 84.4005C360.326 84.5049 357.3 84.3657 353.717 84.157C340.325 83.357 334.69 83.7744 332.116 85.7223C329.82 87.4963 331.316 88.9573 336.221 89.7225C339.351 90.2095 345.856 89.9313 354.935 88.9921C358.448 88.6094 361.37 88.2964 361.439 88.2964C361.509 88.2964 362.205 89.5834 363.005 91.1487C366.379 98.0361 372.814 103.393 379.875 105.167C383.319 106.071 389.441 106.002 392.954 105.063C398.068 103.706 402.172 100.958 403.981 97.723C404.677 96.4708 404.711 96.2621 404.259 96.0881C403.911 95.949 403.111 96.3664 402.103 97.2012C398.868 99.9144 397.928 100.575 395.528 101.723C392.189 103.323 389.476 103.949 385.963 103.949C378.623 103.949 371.875 100.436 367.909 94.5924C366.205 92.0879 364.292 88.2964 364.57 87.9833C364.918 87.6703 380.188 87.6355 387.006 87.9485C396.92 88.4355 416.573 88.7834 418.764 88.5051C420.017 88.3312 420.747 88.0877 420.747 87.8094C420.747 87.4615 419.043 87.3224 413.547 87.1485C409.546 87.0093 402.242 86.7311 397.268 86.5224C392.293 86.3137 385.267 86.0702 381.614 85.931L375.005 85.6875L378.658 85.0614C402.833 80.9568 421.304 70.9736 435.844 54.0683C438 51.5638 440.957 47.981 442.453 46.1026C445.479 42.2416 445.27 42.3111 448.818 43.946C450.871 44.8852 451.705 46.1026 451.705 48.2593C451.705 50.5203 450.766 54.764 449.062 60.0861C447.044 66.4516 446.453 69.5475 446.418 73.7564C446.418 79.0089 447.636 82.4526 450.697 85.7223C455.532 90.8009 465.028 91.2879 470.42 86.7659C472.507 84.9918 471.741 84.7483 468.819 86.2441C466.419 87.4963 465.828 87.6703 463.706 87.6703C460.889 87.705 459.323 87.1137 457.723 85.444C454.21 81.7917 453.688 74.6956 456.088 63.2167C457.619 55.7032 457.549 49.5115 455.845 46.6244C455.497 45.9983 455.184 45.4417 455.184 45.3722C455.184 45.3374 456.088 45.233 457.201 45.1982C460.576 45.0591 463.845 44.5026 466.628 43.5634C479.429 39.1805 488.542 27.8059 487.151 17.8575C486.594 13.8921 485.412 11.4224 482.559 8.39613L480.855 6.58734L483.081 5.47423C487.186 3.38715 493.203 1.68271 496.404 1.68271C497.238 1.68271 498.143 1.57835 498.456 1.474C499.256 1.16094 499.117 0.395675 498.247 0.152183C497.412 -0.056525 494.56 -0.056525 493.099 0.186967ZM468.054 3.56107C471.011 4.32634 474.872 5.78729 475.324 6.34384C475.637 6.69169 475.22 7.1091 473.55 8.11786C462.732 14.7617 449.827 26.4841 435.183 43.0764C426.278 53.1639 414.347 65.095 409.79 68.4692C396.015 78.6958 381.162 84.3309 367.318 84.5744L363.213 84.644L362.9 83.2526C362.274 80.6785 362.413 72.3998 363.144 69.3388C364.674 62.834 367.666 56.225 372.014 49.6507C379.875 37.8587 393.233 25.1275 405.546 17.7184C418.799 9.71795 432.817 4.81332 447.183 3.07409C451.462 2.58711 465.376 2.90017 468.054 3.56107ZM479.533 9.57881C481.098 11.492 481.759 14.1008 481.481 17.2314C480.82 24.3623 476.785 31.3888 470.28 36.676C465.758 40.3632 462.21 41.8937 456.401 42.6938C453.723 43.0764 452.332 42.8677 448.888 41.6154L446.592 40.7806L450.175 36.3282C456.088 28.9538 461.202 23.2492 466.767 17.788C471.533 13.1616 477.342 8.29178 478.142 8.29178C478.316 8.29178 478.942 8.88312 479.533 9.57881Z" fill="#C69F4B"/>
<path d="M617.628 13.5446C613.211 14.7621 609.106 16.884 604.514 20.3624C598.879 24.5714 585.348 38.8678 573.8 52.7817C570.495 56.7819 565.034 62.2083 561.451 65.0954C557.938 67.913 553.52 70.3827 552.337 70.1392C551.433 69.9653 551.398 68.7478 552.268 67.0086C554.598 62.417 568.304 47.3205 573.382 43.8072C574.843 42.7985 574.808 42.3811 573.243 42.3811C570.634 42.3811 567.399 43.3898 565.521 44.816C564.512 45.5813 563.642 46.2074 563.538 46.2074C563.469 46.2074 563.469 45.7552 563.573 45.1638C563.747 44.2942 563.608 43.9464 562.529 42.8681L561.242 41.581L558.39 41.7897C555.12 41.9984 552.198 42.8681 548.268 44.8508C539.78 49.1641 531.849 56.2949 528.684 62.4866C527.64 64.5737 527.397 65.3737 527.397 67.1825C527.362 68.7478 527.536 69.6522 527.988 70.3479C530.597 74.3133 538.424 71.9132 545.937 64.8519C546.911 63.9475 547.363 63.6693 547.189 64.1215C545.937 67.2869 545.833 67.8434 546.354 69.3044C547.468 72.5046 550.876 73.1307 555.503 70.974C558.32 69.6522 561.764 67.2521 564.338 64.8519L566.147 63.1475L565.382 64.8519C564.408 67.0782 564.338 69.5131 565.277 70.7653C567.991 74.3481 575.087 72.0871 582.287 65.3389C583.957 63.7736 584.305 63.5997 584.061 64.2954C582.565 69.1652 584.965 72.2958 590.253 72.2958C595.123 72.2958 600.097 70.3479 607.019 65.7563C613.524 61.443 618.324 57.0254 618.324 55.3557C618.324 54.4166 617.35 54.9731 615.193 57.1993C609.245 63.2171 601.175 68.3304 595.192 69.8609C590.774 70.974 589.105 70.661 589.105 68.6435C589.105 66.7651 591.47 62.7301 594.427 59.4603C595.61 58.1385 596.131 57.895 599.366 56.9558C608.48 54.4166 615.924 50.2424 617.628 46.7639C618.95 44.016 617.872 42.068 614.88 41.755C607.262 41.0245 594.253 48.538 587.679 57.4428C583.678 62.8692 575.017 69.687 571.191 70.4175C570.008 70.6262 569.973 70.5914 569.973 69.5826C569.973 67.426 576.304 59.0081 588.409 45.1638C602.706 28.8151 613.28 19.145 621.037 15.3534C622.776 14.4838 624.237 13.649 624.237 13.4751C624.237 13.0577 619.193 13.1272 617.628 13.5446ZM561.208 44.8508C561.416 47.3205 560.164 49.0945 553.833 55.4253C544.824 64.3997 537.832 69.7566 534.597 70.1392C532.649 70.3479 532.441 69.7566 533.554 67.3564C534.876 64.4693 537.345 61.443 543.189 55.5644C550.737 47.9814 557.173 43.3203 559.886 43.529C561.034 43.5985 561.103 43.7029 561.208 44.8508ZM615.541 43.9116C615.541 44.1899 614.776 45.3378 613.871 46.4509C611.471 49.3032 606.08 52.9208 602.01 54.3818C601.314 54.6253 599.923 55.147 598.914 55.5644C597.557 56.121 597.14 56.1558 597.349 55.8079C597.731 55.1122 602.74 50.6946 605.627 48.4684C610.567 44.6769 615.541 42.3811 615.541 43.9116Z" fill="#C69F4B"/>
<path d="M491.708 40.7807C485.551 42.3808 478.838 46.4853 473.099 52.2596C468.785 56.6077 466.698 59.8426 465.759 63.6689C464.75 67.704 465.863 70.765 468.751 71.9477C470.559 72.6782 474.455 72.226 477.447 70.9041C487.186 66.6256 498.874 53.9293 500.37 46.0331C501.135 42.1025 499.952 40.6415 495.987 40.4328C494.665 40.3633 492.787 40.5372 491.708 40.7807ZM497.9 42.7982C498.526 43.4243 498.422 44.607 497.448 46.9723C493.517 56.6425 479.012 70.3128 472.577 70.3824C471.081 70.3824 471.012 70.3476 470.907 69.2693C470.733 67.6344 472.194 64.3646 474.525 61.1297C478.873 55.1119 489.134 45.4766 493.587 43.2504C495.465 42.3112 497.239 42.1373 497.9 42.7982Z" fill="#C69F4B"/>
<path d="M518.493 41.9292C514.318 42.5901 509.936 45.3381 504.579 50.7297C498.352 56.9562 494.317 62.5217 493.204 66.3828C492.717 68.0524 492.717 68.4699 493.135 69.6525C493.865 71.67 495.152 72.4701 497.622 72.4701C499.326 72.4353 500.126 72.1918 502.561 70.9743C504.161 70.1395 506.735 68.3655 508.335 67.0437C509.936 65.6871 511.083 64.887 510.909 65.2349C510.249 66.4176 495.987 81.201 491.221 85.6187C480.682 95.3931 473.307 101.237 464.229 106.907C463.359 107.463 461.133 108.646 459.289 109.585C450.976 113.725 444.506 115.429 436.923 115.429C428.748 115.429 423.426 112.925 421.93 108.368C420.922 105.307 421.722 100.298 423.635 97.6194C424.748 96.1236 424.157 95.6019 422.87 96.9585C420.643 99.3586 419.496 102.907 419.809 106.629C420.052 109.759 421.165 111.742 423.739 113.69C427.705 116.716 433.688 117.864 441.792 117.203C450.802 116.473 457.55 114.594 466.176 110.42C483.082 102.211 499.813 87.5318 522.145 61.339C529.589 52.5733 534.807 47.1469 538.25 44.5728C539.607 43.5293 540.755 42.5205 540.755 42.3118C540.755 41.6857 535.607 42.2075 533.45 43.0771C530.528 44.225 528.441 45.9642 519.188 55.0778C508.996 65.061 503.466 69.3743 499.361 70.5569C498.387 70.8352 498.317 70.8004 498.317 69.8612C498.317 67.7742 506.005 58.3128 515.431 48.8513C522.667 41.5814 522.806 41.2335 518.493 41.9292Z" fill="#C69F4B"/>
</svg>
